<svg xmlns="http://www.w3.org/2000/svg" width="843.747" height="544.375" viewBox="0 0 843.747 544.375"><defs><style>.a{fill:#91a8f6;}.b{fill:#93c7ea;}.c{fill:#ff8383;}.d{fill:#d15e79;}.e{fill:#1b2a67;}.f{fill:#201028;}.g{fill:#ffd2d4;}.h,.n{fill:#445eea;}.i{fill:#e0eef7;}.j{fill:#6eacce;}.k{fill:#86294e;}.l{fill:#fff;}.m,.o{fill:none;}.m{stroke:#1b2a67;stroke-miterlimit:10;stroke-width:0.827px;}.m,.n,.o{stroke-linecap:round;}.n,.o{stroke:#445eea;stroke-linejoin:round;}.n{stroke-width:2.761px;}.o{stroke-width:0.658px;}</style></defs><g transform="translate(-91.92 -73.907)"><g transform="translate(91.92 59.6)"><g transform="translate(37.499)"><path class="a" d="M532.392,248.274a5.749,5.749,0,1,1-5.747-5.75A5.754,5.754,0,0,1,532.392,248.274Zm-2.849,0a2.9,2.9,0,1,0-2.9,2.9A2.9,2.9,0,0,0,529.542,248.274Z" transform="translate(80.906 30.087)"/><g transform="translate(659.227 67.874)"><path class="a" d="M604.632,105.148H572.073a1.424,1.424,0,0,0,0,2.848h32.558a1.424,1.424,0,1,0,0-2.848Z" transform="translate(-553.926 -105.142)"/><path class="a" d="M567.213,105.144h-6.361a1.425,1.425,0,0,0,0,2.849h6.361a1.425,1.425,0,1,0,0-2.849Z" transform="translate(-559.428 -105.144)"/><path class="a" d="M594.836,113.229a1.425,1.425,0,0,1-1.425,1.425h-4.073a1.425,1.425,0,0,1,0-2.849h4.073A1.425,1.425,0,0,1,594.836,113.229Zm-11.194,0a1.425,1.425,0,0,1-1.425,1.425H575.1a1.425,1.425,0,1,1,0-2.849h7.122A1.425,1.425,0,0,1,583.643,113.229Zm-14.244,0a1.423,1.423,0,0,1-1.423,1.425h-7.122a1.425,1.425,0,0,1,0-2.849h7.122A1.423,1.423,0,0,1,569.4,113.229Z" transform="translate(-559.427 -101.879)"/></g><g transform="translate(173.24 152.94)"><path class="a" d="M239.47,169.04a1.425,1.425,0,0,0-1.425,1.425v3.3a1.425,1.425,0,0,0,2.849,0v-3.3A1.425,1.425,0,0,0,239.47,169.04Z" transform="translate(-231.014 -158.882)"/><path class="a" d="M238.056,166.816H234.75a1.425,1.425,0,0,0,0,2.849h3.305a1.425,1.425,0,0,0,0-2.849Z" transform="translate(-233.327 -159.973)"/><path class="a" d="M239.47,162.224a1.423,1.423,0,0,0-1.425,1.423v3.3a1.425,1.425,0,0,0,2.849,0v-3.3A1.423,1.423,0,0,0,239.47,162.224Z" transform="translate(-231.014 -162.224)"/><path class="a" d="M245.276,166.664H241.97a1.424,1.424,0,0,0,0,2.848h3.305a1.424,1.424,0,0,0,0-2.848Z" transform="translate(-229.787 -160.047)"/></g><g transform="translate(531.509 60.594)"><path class="a" d="M479.871,107.076a1.425,1.425,0,0,0-1.425,1.425v3.3a1.425,1.425,0,0,0,2.849,0v-3.3A1.425,1.425,0,0,0,479.871,107.076Z" transform="translate(-471.415 -96.917)"/><path class="a" d="M478.457,104.852h-3.305a1.424,1.424,0,0,0,0,2.848h3.305a1.424,1.424,0,0,0,0-2.848Z" transform="translate(-473.728 -98.007)"/><path class="a" d="M479.871,100.259a1.425,1.425,0,0,0-1.425,1.425v3.3a1.425,1.425,0,0,0,2.849,0v-3.3A1.425,1.425,0,0,0,479.871,100.259Z" transform="translate(-471.415 -100.259)"/><path class="a" d="M485.677,104.7h-3.305a1.424,1.424,0,0,0,0,2.848h3.305a1.424,1.424,0,0,0,0-2.848Z" transform="translate(-470.188 -98.082)"/></g><path class="a" d="M625.128,161.389a5.03,5.03,0,1,0,5.03-5.03A5.029,5.029,0,0,0,625.128,161.389Z" transform="translate(132.012 -12.159)"/><g transform="translate(79.644 392.816)"><path class="a" d="M183.171,326.03h32.559a1.424,1.424,0,0,0,0-2.848H183.171a1.424,1.424,0,1,0,0,2.848Z" transform="translate(-165.022 -323.182)"/><path class="a" d="M171.949,326.034h6.362a1.424,1.424,0,0,0,0-2.848h-6.362a1.424,1.424,0,1,0,0,2.848Z" transform="translate(-170.524 -323.18)"/></g><path class="a" d="M600.2,340.636s1.945,13.875-14.262,13.554c0,0,13.921.142,13.556,13.161,0,0,1.252-10.241,14.027-12.529C613.52,354.822,602.725,357.3,600.2,340.636Z" transform="translate(112.797 78.191)"/><path class="a" d="M652.119,209.323s1.945,13.875-14.262,13.554c0,0,13.921.142,13.554,13.161,0,0,1.253-10.241,14.027-12.529C665.438,223.509,654.644,225.985,652.119,209.323Z" transform="translate(138.253 13.809)"/><path class="a" d="M307.214,83.28s1.945,13.873-14.262,13.553c0,0,13.921.143,13.556,13.161,0,0,1.252-10.24,14.027-12.529C320.534,97.465,309.739,99.942,307.214,83.28Z" transform="translate(-30.853 -47.99)"/><path class="a" d="M213.6,108.99s1.945,13.875-14.261,13.554c0,0,13.921.143,13.554,13.161,0,0,1.252-10.241,14.027-12.529C226.921,123.176,216.127,125.653,213.6,108.99Z" transform="translate(-76.751 -35.384)"/><path class="a" d="M267.286,69.2s.677,4.835-4.972,4.724c0,0,4.854.049,4.723,4.589,0,0,.437-3.571,4.89-4.37C271.926,74.143,268.163,75.006,267.286,69.2Z" transform="translate(-45.875 -54.893)"/><path class="a" d="M437.577,181.07s.677,4.835-4.972,4.724c0,0,4.854.049,4.723,4.589,0,0,.438-3.571,4.89-4.37C442.217,186.013,438.454,186.876,437.577,181.07Z" transform="translate(37.618 -0.044)"/><path class="a" d="M122.052,236.533s.677,4.835-4.97,4.724c0,0,4.852.049,4.723,4.589,0,0,.437-3.571,4.89-4.368C126.694,241.478,122.931,242.339,122.052,236.533Z" transform="translate(-117.082 27.15)"/><path class="a" d="M405.2,324.013s.677,4.836-4.972,4.726c0,0,4.854.049,4.723,4.587,0,0,.438-3.571,4.89-4.368C409.839,328.958,406.076,329.821,405.2,324.013Z" transform="translate(21.743 70.041)"/><g transform="translate(195.977 290.291)"><path class="a" d="M287.533,280.209H255.919a7.334,7.334,0,0,1-.235-14.665,11.351,11.351,0,0,1,20.858-6.006,8.232,8.232,0,0,1,9.142,6h1.849a7.334,7.334,0,0,1,0,14.669Zm-31.614-12.5a5.164,5.164,0,1,0,0,10.328h31.614a5.164,5.164,0,0,0,0-10.328h-3.65l-.145-.915a6.066,6.066,0,0,0-7.483-5l-.8.191-.4-.717a9.18,9.18,0,0,0-17.2,4.464c0,.268.018.534.04.794l.1,1.179Z" transform="translate(-248.584 -254.387)"/></g><g transform="translate(759.965 22.743)"><path class="a" d="M665.973,100.685H634.358a7.335,7.335,0,0,1-.234-14.666,11.349,11.349,0,0,1,20.857-6,8.236,8.236,0,0,1,9.143,6h1.849a7.334,7.334,0,0,1,0,14.669Zm-31.615-12.5a5.164,5.164,0,0,0,0,10.328h31.615a5.164,5.164,0,1,0,0-10.328h-3.65l-.145-.915a6.07,6.07,0,0,0-7.483-5l-.8.191-.4-.717a9.181,9.181,0,0,0-17.2,4.465c0,.268.018.532.042.794l.1,1.177Z" transform="translate(-627.024 -74.861)"/></g><g transform="translate(270.453 103.459)"><path class="a" d="M337.507,154.846H305.892a7.334,7.334,0,0,1-.234-14.665,11.349,11.349,0,0,1,20.857-6,8.236,8.236,0,0,1,9.143,6h1.849a7.334,7.334,0,1,1,0,14.668Zm-31.615-12.5a5.164,5.164,0,1,0,0,10.328h31.615a5.164,5.164,0,1,0,0-10.328h-3.65l-.145-.915a6.07,6.07,0,0,0-7.483-5l-.8.191-.4-.717a9.181,9.181,0,0,0-17.2,4.463c0,.268.018.534.042.794l.1,1.179Z" transform="translate(-298.558 -129.022)"/></g></g><g transform="translate(265.06 248.39)"><g transform="translate(128.067 157.842)"><path class="b" d="M408.5,458.359h0a25.55,25.55,0,0,1-31.541-17.629l-20.272-71.648a25.551,25.551,0,0,1,17.629-31.542h0a25.553,25.553,0,0,1,31.542,17.629l20.273,71.649A25.549,25.549,0,0,1,408.5,458.359Z" transform="translate(-355.711 -330.035)"/><path class="b" d="M374.236,449.783h0a25.551,25.551,0,0,1-.35-36.132l52.138-53.16a25.551,25.551,0,0,1,36.132-.35h0a25.549,25.549,0,0,1,.35,36.131l-52.138,53.16A25.551,25.551,0,0,1,374.236,449.783Z" transform="translate(-350.384 -322.062)"/><g transform="translate(84.703)"><path class="c" d="M454.832,352.665a22.387,22.387,0,1,1-31.043-6.225A22.387,22.387,0,0,1,454.832,352.665Z" transform="translate(-411.929 -327.037)"/><path class="c" d="M421.822,361.853h0a5.833,5.833,0,0,1-7.1-4.2l-1.985-7.7a5.834,5.834,0,0,1,4.194-7.1h0a5.834,5.834,0,0,1,7.106,4.194l1.984,7.7A5.834,5.834,0,0,1,421.822,361.853Z" transform="translate(-412.547 -327.046)"/><path class="c" d="M440.295,340.467l-7.933,20.082a6.055,6.055,0,0,1-7.857,3.408h0A6.058,6.058,0,0,1,421.1,356.1l7.933-20.082a6.055,6.055,0,0,1,7.857-3.407h0A6.055,6.055,0,0,1,440.295,340.467Z" transform="translate(-408.564 -332.185)"/><path class="c" d="M450.149,343.443l-9.58,19.35a6.053,6.053,0,0,1-8.113,2.741h0a6.055,6.055,0,0,1-2.741-8.115l9.578-19.35a6.058,6.058,0,0,1,8.115-2.741h0A6.056,6.056,0,0,1,450.149,343.443Z" transform="translate(-404.439 -330.952)"/><path class="c" d="M458.156,351.023l-13.378,16.948a6.057,6.057,0,0,1-8.507,1h0a6.057,6.057,0,0,1-1-8.507l13.377-16.948a6.059,6.059,0,0,1,8.507-1h0A6.057,6.057,0,0,1,458.156,351.023Z" transform="translate(-402.045 -327.757)"/></g></g><g transform="translate(75.862 0)"><g transform="translate(30.424 81.115)"><path class="c" d="M0,0H29.849a0,0,0,0,1,0,0V49.681a7.1,7.1,0,0,1-7.1,7.1H7.1a7.1,7.1,0,0,1-7.1-7.1V0A0,0,0,0,1,0,0Z" transform="translate(2.232 1.622) rotate(2.253)"/><path class="d" d="M372.575,281.873,342.75,280.7l-.461,11.715c-.452,11.48,8.893,21.556,20.352,20.721a20.7,20.7,0,0,0,2.142-.268,20.921,20.921,0,0,0,6.671-2.44Z" transform="translate(-340.517 -280.7)"/></g><g transform="translate(0)"><ellipse class="e" cx="37.194" cy="28.648" rx="37.194" ry="28.648" transform="translate(0 33.959) rotate(-15.799)"/><ellipse class="e" cx="33.046" cy="21.511" rx="33.046" ry="21.511" transform="translate(30.508 34.317) rotate(-9.641)"/><ellipse class="e" cx="33.046" cy="21.511" rx="33.046" ry="21.511" transform="matrix(0.734, -0.679, 0.679, 0.734, 9.452, 44.861)"/><path class="c" d="M391.3,289.251c2.936,16.453-5.675,31.754-19.231,34.173h0c-13.554,2.419-26.924-8.96-29.86-25.411l-2.31-12.949c-2.936-16.453,5.672-31.754,19.225-34.173h0c13.557-2.419,26.93,8.96,29.866,25.413Z" transform="translate(-311.54 -214.359)"/><path class="e" d="M366.69,250.635c-7.5-6.785-20.547-3.5-29.146,7.331s-9.492,25.119-1.994,31.906,20.545,3.505,29.144-7.331S374.186,257.422,366.69,250.635Z" transform="translate(-315.885 -216.058)"/><g transform="translate(9.926 59.606)"><g transform="translate(0 0)"><g transform="translate(24.896 29.277)"><path class="f" d="M366.15,295.508h0l-8.019-.007a13.019,13.019,0,0,1-8.744-3.365l-5.018-4.529a.973.973,0,0,1,1.3-1.444l5.018,4.529a11.081,11.081,0,0,0,7.44,2.863l8.019.007a.973.973,0,1,1,0,1.946Z" transform="translate(-344.047 -285.912)"/><g transform="translate(16.904 6.672)"><path class="g" d="M360.588,294.286h0l-3.25,0a1.947,1.947,0,0,1,0-3.894h0l3.25,0a1.946,1.946,0,0,1,0,3.893Z" transform="translate(-355.39 -290.389)"/></g></g><circle class="h" cx="16.303" cy="16.303" r="16.303" transform="matrix(0.341, -0.94, 0.94, 0.341, 0, 30.658)"/><ellipse class="a" cx="13.918" cy="12.725" rx="13.918" ry="12.725" transform="matrix(0.039, -0.999, 0.999, 0.039, 5.235, 34.194)"/><path class="i" d="M343.964,282.179c-.122,3.112-2.179,5.557-4.593,5.462s-4.271-2.694-4.149-5.806,2.179-5.557,4.593-5.462S344.086,279.067,343.964,282.179Z" transform="translate(-323.48 -261.314)"/></g></g></g></g><g transform="translate(45.437 113.311)"><path class="b" d="M400.887,494.235l-77.987,2.2a23.559,23.559,0,0,1-22.615-24.466l4.927-130.51A16.218,16.218,0,0,1,316.5,326.637l58.139-18.512L421.11,330.4a16.217,16.217,0,0,1,9.2,15.264l-4.954,125.957A23.559,23.559,0,0,1,400.887,494.235Z" transform="translate(-300.266 -299.45)"/><path class="j" d="M397.2,333.313c.268,13.609.112,27.2-.112,40.791-.179,13.59-.663,27.17-1.148,40.749-.578,13.575-1.164,27.15-2.049,40.712-.2,3.3-.367,7.012-1.612,10.386a23.643,23.643,0,0,1-24.5,15.934,23.652,23.652,0,0,0,17.536-8.229,22.123,22.123,0,0,0,4.623-8.459c.954-3.1.927-6.279.96-9.75.18-13.59.663-27.17,1.154-40.749.583-13.574,1.167-27.149,2.057-40.713C394.957,360.421,395.868,346.86,397.2,333.313Z" transform="translate(-267.162 -287.1)"/><path class="b" d="M3.786,0H38.392a3.787,3.787,0,0,1,3.787,3.787V30.713a0,0,0,0,1,0,0H0a0,0,0,0,1,0,0V3.786A3.786,3.786,0,0,1,3.786,0Z" transform="translate(55.601 0) rotate(3.691)"/></g><g transform="translate(0 151.922)"><path class="b" d="M285.534,446.13h0a25.548,25.548,0,0,1-13.8-33.395L300.3,343.969a25.551,25.551,0,0,1,33.4-13.8h0a25.55,25.55,0,0,1,13.8,33.395l-28.56,68.767A25.55,25.55,0,0,1,285.534,446.13Z" transform="translate(-269.777 -328.212)"/><path class="j" d="M317.522,329.528a25.113,25.113,0,0,1,11.8,8.29,26.394,26.394,0,0,1,5.371,13.8c.675,5-.933,10.334-2.772,14.638l-5.393,13.27c-3.7,8.8-7.413,17.6-11.4,26.281l-6,13.021c-2.13,4.285-4.136,8.621-6.375,12.86,1.423-4.577,3.08-9.06,4.612-13.591l4.992-13.437c3.335-8.955,6.951-17.793,10.572-26.627l5.593-13.188a37.262,37.262,0,0,0,2.419-6.416,24.8,24.8,0,0,0,.772-6.642A25.954,25.954,0,0,0,317.522,329.528Z" transform="translate(-253.606 -327.567)"/><g transform="translate(1.596 48.415)"><g transform="translate(111.776)"><g transform="translate(0 9.053)"><path class="k" d="M367.154,391.185l-13.01-.839a8.873,8.873,0,0,1-8.274-9.416l.379-5.866a8.873,8.873,0,0,1,9.414-8.273l13.01.839Zm-11.867-18.566a3.027,3.027,0,0,0-3.21,2.823l-.379,5.866a3.026,3.026,0,0,0,2.821,3.21l7.183.463.767-11.9Z" transform="translate(-345.851 -366.773)"/></g><g transform="translate(11.101)"><path class="d" d="M376.154,412.876,364.9,412.15a12.4,12.4,0,0,1-11.575-13.171l2.334-36.176c.259-4.036,36.259-1.714,36,2.322L389.325,401.3A12.4,12.4,0,0,1,376.154,412.876Z" transform="translate(-353.299 -360.699)"/><path class="k" d="M386.343,365.56c-.094,1.455-6.778,2.206-14.928,1.68s-14.681-2.13-14.588-3.583,6.778-2.206,14.928-1.68S386.437,364.107,386.343,365.56Z" transform="translate(-351.571 -360.155)"/></g></g><path class="b" d="M270.851,400.2h0A25.549,25.549,0,0,1,296.8,375.051l74.451,1.174A25.552,25.552,0,0,1,396.4,402.176h0a25.55,25.55,0,0,1-25.951,25.144L296,426.144A25.549,25.549,0,0,1,270.851,400.2Z" transform="translate(-270.848 -353.664)"/><path class="j" d="M288.263,375.431c9.56-.653,19.113-.879,28.666-1.039,9.553-.206,19.1-.1,28.649,0l14.32.328c4.678.033,10.214.672,14.533,3.283a26.442,26.442,0,0,1,10.524,10.425,25.134,25.134,0,0,1,2.9,14.132,25.963,25.963,0,0,0-14.77-21.882,25.1,25.1,0,0,0-6.4-1.937,37.455,37.455,0,0,0-6.849-.334l-14.323-.124c-9.547-.2-19.094-.4-28.636-.908C307.339,376.911,297.8,376.385,288.263,375.431Z" transform="translate(-262.309 -354.044)"/><g transform="translate(97.43 11.404)"><circle class="c" cx="22.387" cy="22.387" r="22.387" transform="translate(0 34.457) rotate(-50.316)"/><path class="c" d="M350.795,388h0a5.352,5.352,0,0,1-3.308-6.809l2.386-6.9a5.354,5.354,0,0,1,6.811-3.308h0a5.352,5.352,0,0,1,3.308,6.809l-2.387,6.9A5.353,5.353,0,0,1,350.795,388Z" transform="translate(-330.847 -367.205)"/><path class="c" d="M386.92,387.944l-19.869,1.849a5.6,5.6,0,0,1-6.091-5.054h0a5.6,5.6,0,0,1,5.055-6.092l19.867-1.848a5.6,5.6,0,0,1,6.091,5.054h0A5.6,5.6,0,0,1,386.92,387.944Z" transform="translate(-324.108 -364.22)"/><path class="c" d="M383.822,400.63l-19.913-1.285a5.6,5.6,0,0,1-5.223-5.945h0a5.6,5.6,0,0,1,5.945-5.225l19.912,1.285a5.6,5.6,0,0,1,5.225,5.945h0A5.6,5.6,0,0,1,383.822,400.63Z" transform="translate(-325.217 -358.637)"/></g></g></g></g><g transform="translate(374.289 384.361)"><g transform="translate(232.678)"><g transform="translate(15.873 22.912)"><path class="h" d="M512.185,359.848a2.335,2.335,0,0,1-1.651-3.985l22.292-22.3a2.334,2.334,0,0,1,3.3,3.3l-22.292,22.295A2.318,2.318,0,0,1,512.185,359.848Z" transform="translate(-509.85 -332.883)"/></g><path class="h" d="M501.533,353.705a2.334,2.334,0,0,1-2.334-2.334V319.844a2.335,2.335,0,1,1,4.669,0v31.527A2.335,2.335,0,0,1,501.533,353.705Z" transform="translate(-499.199 -317.509)"/><g transform="translate(29.55 61.081)"><path class="h" d="M552.892,363.164h-31.53a2.335,2.335,0,1,1,0-4.669h31.53a2.335,2.335,0,1,1,0,4.669Z" transform="translate(-519.027 -358.495)"/></g></g><g transform="translate(0 59.688)"><path class="j" d="M357.055,430.637h192.9c5.38,0,7.039-4.359,7.039-9.742H347.31A9.742,9.742,0,0,0,357.055,430.637Z" transform="translate(-340.992 -326.507)"/><path class="j" d="M347.946,420.895h68.378c0,5.383-4.954,9.742-11.065,9.742H360.447c-.061,0-12.73,0-12.791,0C341.352,430.546,341.642,420.895,347.946,420.895Z" transform="translate(-343.07 -326.507)"/><g transform="translate(68.956)"><path class="i" d="M397.9,454.783H536.39a8.563,8.563,0,0,0,8.41-6.966l18.666-80.094a8.562,8.562,0,0,0-8.413-10.162H416.572a8.564,8.564,0,0,0-8.416,6.967l-18.663,80.092A8.565,8.565,0,0,0,397.9,454.783Z" transform="translate(-389.34 -357.56)"/><path class="j" d="M408.156,364a8.547,8.547,0,0,1,3.414-5.352,8.531,8.531,0,0,1,3.417,8.547l-18.661,80.094a8.545,8.545,0,0,1-3.411,5.346,8.542,8.542,0,0,1-3.422-8.544Z" transform="translate(-389.34 -357.028)"/><path class="l" d="M470.656,402.586H447.946a8.438,8.438,0,0,1-8.437-8.437h0a8.436,8.436,0,0,1,8.437-8.435h22.711a8.436,8.436,0,0,1,8.437,8.435h0A8.438,8.438,0,0,1,470.656,402.586Z" transform="translate(-364.743 -343.756)"/></g><g transform="translate(16.274 92.206)"><path class="j" d="M363.237,424.3h-6.814a2.433,2.433,0,0,1-2.434-2.434h0a2.433,2.433,0,0,1,2.434-2.434h6.814a2.433,2.433,0,0,1,2.434,2.434h0A2.433,2.433,0,0,1,363.237,424.3Z" transform="translate(-353.99 -419.431)"/><path class="j" d="M372.163,424.3H365.35a2.433,2.433,0,0,1-2.434-2.434h0a2.433,2.433,0,0,1,2.434-2.434h6.814a2.433,2.433,0,0,1,2.434,2.434h0A2.433,2.433,0,0,1,372.163,424.3Z" transform="translate(-349.614 -419.431)"/><path class="j" d="M381.089,424.3h-6.814a2.433,2.433,0,0,1-2.434-2.434h0a2.433,2.433,0,0,1,2.434-2.434h6.814a2.433,2.433,0,0,1,2.434,2.434h0A2.433,2.433,0,0,1,381.089,424.3Z" transform="translate(-345.237 -419.431)"/><path class="j" d="M390.015,424.3H383.2a2.433,2.433,0,0,1-2.434-2.434h0a2.433,2.433,0,0,1,2.434-2.434h6.814a2.433,2.433,0,0,1,2.434,2.434h0A2.433,2.433,0,0,1,390.015,424.3Z" transform="translate(-340.861 -419.431)"/></g></g></g><g transform="translate(164.423 422.839)"><path class="m" d="M228.782,416.191s-4.289-32.222-12.054-40.143" transform="translate(-195.15 -353.285)"/><g transform="translate(5.23)"><path class="g" d="M220.758,364.364c2.074,6.867,1.65,13.07-.948,13.855s-6.384-4.146-8.459-11.013c-.021-.068-.042-.137-.061-.206-1.757-6.118,7.48-8.909,9.4-2.841C220.716,364.227,220.737,364.3,220.758,364.364Z" transform="translate(-203.155 -360.774)"/><g transform="translate(0 9.248)"><path class="g" d="M230.423,376.669c-6.867,2.074-13.07,1.65-13.855-.948s4.146-6.384,11.013-8.459c.069-.021.137-.042.206-.061,6.118-1.759,8.909,7.48,2.842,9.4C230.56,376.627,230.492,376.648,230.423,376.669Z" transform="translate(-200.499 -366.979)"/><path class="g" d="M212.191,381.771c6.866-2.074,11.8-5.863,11.012-8.459s-6.988-3.022-13.855-.948l-.2.064c-6.067,1.924-3.277,11.161,2.841,9.4Z" transform="translate(-205.759 -364.985)"/></g><g transform="translate(8.28 18.852)"><path class="g" d="M221.026,388.055c1.93-6.909,1.377-13.1-1.237-13.831s-6.3,4.277-8.228,11.186c-.018.07-.037.139-.055.207-1.63,6.153,7.665,8.751,9.46,2.644C220.987,388.192,221.006,388.123,221.026,388.055Z" transform="translate(-211.315 -373.066)"/><path class="g" d="M224.629,386.409c-5.434-4.684-8.4-10.147-6.629-12.2s7.612.076,13.046,4.76l.161.142c4.764,4.222-1.538,11.53-6.414,7.44C224.737,386.5,224.684,386.455,224.629,386.409Z" transform="translate(-208.289 -373.424)"/></g><path class="d" d="M221.269,373.87a3.358,3.358,0,1,1-4.186-2.244A3.358,3.358,0,0,1,221.269,373.87Z" transform="translate(-201.377 -355.524)"/></g><g transform="translate(0 30.369)"><path class="h" d="M223.217,391.264c8.921,7.028,14,15.462,11.338,18.837s-12.046.413-20.967-6.617-11.34-18.837-11.34-18.837S214.3,384.236,223.217,391.264Z" transform="translate(-202.249 -379.44)"/><path class="h" d="M245.292,403.615c-9.417,8.845-19.763,13.127-23.109,9.563s1.577-13.618,10.994-22.463,23.109-9.563,23.109-9.563S254.709,394.772,245.292,403.615Z" transform="translate(-192.99 -381.152)"/></g><g transform="translate(5.371 57.522)"><path class="e" d="M244.609,441.138H213.8L208.4,402.373H250Z" transform="translate(-204.602 -397.9)"/><rect class="e" width="49.201" height="14.413" rx="1.469"/></g></g><g transform="translate(0 48.872)"><g transform="translate(0 29.317)"><g transform="translate(257.244 88.807)"><path class="h" d="M285.44,218.53l15.281,16.387,116.469-48.58Z" transform="translate(-254.282 -164.456)"/><path class="a" d="M301.124,171.655l-11.5,17.355,7.777,17.007-17.448,2.967-15.418,33.85,166.646-50.428Z" transform="translate(-264.533 -171.655)"/><path class="h" d="M289.144,200.307,281.367,183.3l90.264,4.221Z" transform="translate(-256.279 -165.945)"/></g><g transform="translate(131.908 149.891)"><path class="h" d="M329.862,354.112q-1.923,0-3.848-.024a2.332,2.332,0,0,1-2.309-2.361,2.284,2.284,0,0,1,2.362-2.309c6.048.069,12.052-.025,18.641-.3h.1a2.336,2.336,0,0,1,.1,4.669C339.629,354.005,334.705,354.112,329.862,354.112Zm-22.566-.921a1.891,1.891,0,0,1-.206-.007c-6.432-.551-12.763-1.376-18.812-2.452a2.335,2.335,0,0,1-1.89-2.711,2.373,2.373,0,0,1,2.711-1.89c5.908,1.052,12.1,1.858,18.395,2.4a2.335,2.335,0,0,1-.2,4.662Zm-36.861-6.741a2.251,2.251,0,0,1-.686-.107,135.071,135.071,0,0,1-17.8-6.843,2.335,2.335,0,1,1,1.985-4.228,131.239,131.239,0,0,0,17.189,6.608,2.337,2.337,0,0,1-.684,4.571ZM236.6,330.517a2.328,2.328,0,0,1-1.294-.392,123.857,123.857,0,0,1-15.03-11.806,2.336,2.336,0,1,1,3.164-3.437A119.307,119.307,0,0,0,237.9,326.238a2.335,2.335,0,0,1-1.3,4.279Zm-27.527-25.3a2.341,2.341,0,0,1-1.83-.878,124.622,124.622,0,0,1-10.721-15.828,2.336,2.336,0,1,1,4.061-2.311A119.756,119.756,0,0,0,210.9,301.429a2.334,2.334,0,0,1-1.829,3.791Zm-18.5-32.493a2.34,2.34,0,0,1-2.186-1.513,114.655,114.655,0,0,1-5.25-18.41,2.336,2.336,0,0,1,4.586-.9,109.929,109.929,0,0,0,5.037,17.657,2.34,2.34,0,0,1-2.186,3.164Zm-7.451-36.652a2.337,2.337,0,0,1-2.328-2.186c-.243-3.817-.364-7.836-.364-11.939V221q.011-3.045.109-6.1a2.335,2.335,0,0,1,2.335-2.258h.076a2.335,2.335,0,0,1,2.258,2.41q-.1,2.989-.11,5.958v.939c0,4.007.122,7.924.358,11.642a2.331,2.331,0,0,1-2.182,2.48C183.225,236.075,183.175,236.075,183.122,236.075Z" transform="translate(-180.431 -212.643)"/></g><path class="h" d="M246.16,248.348q-5.349,0-10.527-.13a2.335,2.335,0,0,1,.061-4.669h.061q9.045.228,18.66.049a2.21,2.21,0,0,1,2.38,2.289,2.33,2.33,0,0,1-2.289,2.38Q250.28,248.348,246.16,248.348Zm27.053-.784a2.334,2.334,0,0,1-.125-4.665c6.04-.343,12.314-.794,18.648-1.353a2.335,2.335,0,1,1,.411,4.653c-6.384.563-12.706,1.024-18.8,1.362C273.3,247.564,273.258,247.564,273.213,247.564Zm-56.26-.3c-.061,0-.122,0-.186,0-6.5-.507-12.828-1.2-18.806-2.054a2.334,2.334,0,0,1-1.981-2.642,2.371,2.371,0,0,1,2.642-1.981c5.878.841,12.106,1.52,18.509,2.015a2.336,2.336,0,0,1-.179,4.665Zm93.653-2.984a2.335,2.335,0,0,1-.265-4.654q9.1-1.066,18.554-2.411a2.336,2.336,0,0,1,.662,4.624q-9.519,1.357-18.676,2.425A2.119,2.119,0,0,1,310.606,244.284Zm-130.781-2.4a2.416,2.416,0,0,1-.514-.057c-4.516-1.015-8.919-2.155-13.082-3.395q-2.658-.794-5.228-1.647a2.335,2.335,0,0,1,1.466-4.434q2.5.827,5.092,1.6c4.064,1.21,8.361,2.323,12.77,3.313a2.337,2.337,0,0,1-.505,4.618Zm-35.481-12a2.325,2.325,0,0,1-1.019-.237,113.641,113.641,0,0,1-16.49-9.718,2.336,2.336,0,1,1,2.715-3.8,109.35,109.35,0,0,0,15.812,9.316,2.338,2.338,0,0,1-1.018,4.441Zm80.415-2.088a2.336,2.336,0,0,1-2.335-2.335v-.829c0-5.89-.235-11.873-.7-17.79a2.338,2.338,0,0,1,4.662-.365c.471,6.034.711,12.144.711,18.155v.829A2.336,2.336,0,0,1,224.759,227.8ZM114.143,207.992a2.332,2.332,0,0,1-1.726-.76,81.285,81.285,0,0,1-11.228-15.662,2.338,2.338,0,1,1,4.1-2.25,76.508,76.508,0,0,0,10.581,14.763,2.334,2.334,0,0,1-1.726,3.909Zm107.608-17.65a2.337,2.337,0,0,1-2.3-1.939,159.134,159.134,0,0,0-4.125-18.052,2.334,2.334,0,1,1,4.478-1.316,164.109,164.109,0,0,1,4.255,18.577,2.343,2.343,0,0,1-1.909,2.7A2.42,2.42,0,0,1,221.752,190.343ZM96.231,175.419a2.334,2.334,0,0,1-2.25-1.714q-.434-1.574-.814-3.174a45.235,45.235,0,0,1-1.247-10.355,39.8,39.8,0,0,1,.449-5.991,2.334,2.334,0,0,1,4.615.7,35.414,35.414,0,0,0-.395,5.292,40.562,40.562,0,0,0,1.125,9.279c.24,1.01.495,2.015.769,3a2.333,2.333,0,0,1-1.627,2.875A2.4,2.4,0,0,1,96.231,175.419ZM210.923,154.47a2.339,2.339,0,0,1-2.107-1.326,79.128,79.128,0,0,0-9.586-15.46,2.337,2.337,0,0,1,3.644-2.927,84.194,84.194,0,0,1,10.155,16.363,2.341,2.341,0,0,1-2.106,3.35ZM102.03,139.828a2.311,2.311,0,0,1-1.414-.475,2.337,2.337,0,0,1-.446-3.273A52.94,52.94,0,0,1,114.8,123.156a2.337,2.337,0,1,1,2.441,3.985,48.275,48.275,0,0,0-13.35,11.767A2.328,2.328,0,0,1,102.03,139.828Zm85.266-13.89a2.321,2.321,0,0,1-1.277-.38,52.783,52.783,0,0,0-16.372-7.086,2.338,2.338,0,0,1,1.118-4.539,57.531,57.531,0,0,1,17.817,7.718,2.334,2.334,0,0,1-1.285,4.288Zm-54.119-5.954a2.337,2.337,0,0,1-.662-4.578,88.155,88.155,0,0,1,18.363-3.319l.7-.022a2.488,2.488,0,0,1,2.38,2.289,2.332,2.332,0,0,1-2.289,2.38l-.508.019a83.143,83.143,0,0,0-17.326,3.133A2.389,2.389,0,0,1,133.177,119.984Z" transform="translate(-91.92 -112.065)"/></g><g transform="translate(470.992 53.141)"><g transform="translate(104.066)"><path class="h" d="M506.05,128.051H630.913a28.262,28.262,0,0,1,28.26,28.262v64.4a28.26,28.26,0,0,1-28.26,28.26h-81.65l-29.368,25.913V248.975H506.05a28.261,28.261,0,0,1-28.262-28.26v-64.4A28.262,28.262,0,0,1,506.05,128.051Z" transform="translate(-477.788 -128.051)"/><g transform="translate(42.885 32.772)"><path class="a" d="M510.1,157.127h88.534a3.543,3.543,0,0,0,0-7.086H510.1a3.543,3.543,0,0,0,0,7.086Z" transform="translate(-506.564 -150.041)"/><g transform="translate(0 23.609)"><path class="a" d="M510.1,172.968h88.534a3.542,3.542,0,1,0,0-7.085H510.1a3.542,3.542,0,0,0,0,7.085Z" transform="translate(-506.564 -165.883)"/></g><g transform="translate(75.549 47.217)"><path class="a" d="M560.8,188.81h12.983a3.543,3.543,0,0,0,0-7.086H560.8a3.543,3.543,0,0,0,0,7.086Z" transform="translate(-557.258 -181.724)"/></g><g transform="translate(46.038 47.217)"><path class="a" d="M541,188.81h12.985a3.543,3.543,0,0,0,0-7.086H541a3.543,3.543,0,0,0,0,7.086Z" transform="translate(-537.456 -181.724)"/></g><g transform="translate(0 47.217)"><path class="a" d="M510.1,188.81h29.512a3.543,3.543,0,0,0,0-7.086H510.1a3.543,3.543,0,0,0,0,7.086Z" transform="translate(-506.564 -181.724)"/></g></g></g><g transform="translate(0 128.611)"><path class="a" d="M524.493,214.35H428.914a17.02,17.02,0,0,0-17.021,17.019v55.116a17.008,17.008,0,0,0,15.775,16.957l-19.709,32.3L459.9,303.506h64.592a17.02,17.02,0,0,0,17.019-17.021V231.369A17.019,17.019,0,0,0,524.493,214.35Z" transform="translate(-407.959 -214.35)"/><g transform="translate(41.998 15.201)"><circle class="n" cx="11.316" cy="11.316" r="11.316" transform="translate(10.743 16.003) rotate(-45)"/><path class="n" d="M489.633,266.468H436.14a17.143,17.143,0,0,1,17.144-17.144h19.2a17.145,17.145,0,0,1,17.146,17.144Z" transform="translate(-436.14 -212.403)"/></g></g></g><g transform="translate(426.001)"><path class="h" d="M423.923,184.51a46.817,46.817,0,0,1-9.417-.958,2.339,2.339,0,0,1-1.818-2.76,2.373,2.373,0,0,1,2.76-1.818,42.274,42.274,0,0,0,14.666.407,2.338,2.338,0,0,1,.691,4.624A47.155,47.155,0,0,1,423.923,184.51Zm21.2-5.456a2.338,2.338,0,0,1-1.136-4.384,41.474,41.474,0,0,0,11.38-9.255,2.335,2.335,0,1,1,3.535,3.051,46.285,46.285,0,0,1-12.65,10.295A2.34,2.34,0,0,1,445.127,179.054ZM400.6,177.8a2.314,2.314,0,0,1-1.239-.358,46.305,46.305,0,0,1-12.061-10.98,2.337,2.337,0,0,1,3.7-2.851,41.706,41.706,0,0,0,10.843,9.878A2.334,2.334,0,0,1,400.6,177.8Zm64.412-21.858a2.342,2.342,0,0,1-2.189-3.152,41.327,41.327,0,0,0,2.581-14.434,2.335,2.335,0,0,1,4.669,0,45.966,45.966,0,0,1-2.872,16.061A2.342,2.342,0,0,1,465.016,155.941Zm-82.974-2.319a2.337,2.337,0,0,1-2.232-1.651,46.256,46.256,0,0,1-2.04-13.611c0-.87.022-1.73.072-2.586a2.39,2.39,0,0,1,2.463-2.2,2.334,2.334,0,0,1,2.2,2.465c-.042.763-.064,1.539-.064,2.314a41.687,41.687,0,0,0,1.836,12.24,2.337,2.337,0,0,1-1.544,2.919A2.257,2.257,0,0,1,382.043,153.622Zm84.415-23.5a2.336,2.336,0,0,1-2.267-1.776,41.133,41.133,0,0,0-6-13.375,2.335,2.335,0,1,1,3.854-2.638,45.724,45.724,0,0,1,6.676,14.888,2.329,2.329,0,0,1-1.7,2.829A2.247,2.247,0,0,1,466.458,130.124Zm-82.711-6.951a2.342,2.342,0,0,1-2.14-3.273,45.829,45.829,0,0,1,9.071-13.559,2.334,2.334,0,1,1,3.361,3.238,41.312,41.312,0,0,0-8.152,12.191A2.333,2.333,0,0,1,383.746,123.173Zm65.51-18.238a2.31,2.31,0,0,1-1.35-.431,41.1,41.1,0,0,0-13.261-6.234,2.337,2.337,0,1,1,1.2-4.517,45.757,45.757,0,0,1,14.767,6.942,2.335,2.335,0,0,1-1.358,4.24Zm-44.363-3.723a2.337,2.337,0,0,1-1.015-4.441A45.813,45.813,0,0,1,419.6,92.4a2.364,2.364,0,0,1,2.544,2.11,2.341,2.341,0,0,1-2.11,2.544,41.239,41.239,0,0,0-14.122,3.919A2.3,2.3,0,0,1,404.893,101.212Z" transform="translate(-377.77 -92.393)"/><g transform="translate(15.533 23.776)"><path class="h" d="M418.813,108.347c-16.912,0-30.62,9.061-30.62,20.243v.058c.012,2.918,2.314,4.919,4.468,4l8.037-3.431c1.934-.826,2.873-3.641,2-6.013l-.988-2.7a121.286,121.286,0,0,0,34.086,0l-1,3.459c-.63,2.191.188,4.633,1.86,5.545l7.949,4.34c1.933,1.055,4.189-.362,4.633-3a13.571,13.571,0,0,0,.189-2.261C449.434,117.408,435.725,108.347,418.813,108.347Z" transform="translate(-388.193 -108.347)"/><path class="a" d="M436.934,146.646H394.493l6.289-19.7a8.911,8.911,0,0,1,8.489-6.2h12.885a8.915,8.915,0,0,1,8.49,6.2Z" transform="translate(-385.104 -102.271)"/></g><g transform="translate(273.531 240.005)"><path class="h" d="M607.47,345.555a46.461,46.461,0,0,1-9.429-.963,2.341,2.341,0,0,1-1.815-2.763,2.366,2.366,0,0,1,2.765-1.814,42,42,0,0,0,14.662.407,2.337,2.337,0,1,1,.691,4.623A47.5,47.5,0,0,1,607.47,345.555Zm21.2-5.453a2.337,2.337,0,0,1-1.137-4.38,41.594,41.594,0,0,0,11.38-9.258,2.335,2.335,0,0,1,3.536,3.049A46.218,46.218,0,0,1,629.8,339.8,2.3,2.3,0,0,1,628.669,340.1Zm-44.518-1.258a2.322,2.322,0,0,1-1.24-.358,46.32,46.32,0,0,1-12.056-10.981,2.337,2.337,0,1,1,3.7-2.851,41.6,41.6,0,0,0,10.84,9.878,2.335,2.335,0,0,1-1.247,4.311Zm64.408-21.855a2.371,2.371,0,0,1-.814-.148,2.338,2.338,0,0,1-1.377-3,41.326,41.326,0,0,0,2.583-14.432,2.335,2.335,0,1,1,4.669,0,45.95,45.95,0,0,1-2.872,16.059A2.335,2.335,0,0,1,648.559,316.989Zm-82.978-2.326a2.336,2.336,0,0,1-2.231-1.65,46.165,46.165,0,0,1-2.039-13.608c0-.867.024-1.726.073-2.583a2.448,2.448,0,0,1,2.46-2.2,2.337,2.337,0,0,1,2.2,2.461c-.042.772-.066,1.547-.066,2.323a41.458,41.458,0,0,0,1.833,12.231,2.337,2.337,0,0,1-1.544,2.921A2.3,2.3,0,0,1,565.581,314.662Zm84.427-23.49a2.336,2.336,0,0,1-2.267-1.775,41.242,41.242,0,0,0-6-13.372,2.336,2.336,0,1,1,3.855-2.638,45.725,45.725,0,0,1,6.675,14.885,2.332,2.332,0,0,1-1.7,2.829A2.242,2.242,0,0,1,650.008,291.172Zm-82.715-6.954a2.339,2.339,0,0,1-2.142-3.273,46.031,46.031,0,0,1,9.076-13.559,2.333,2.333,0,1,1,3.361,3.238,41.426,41.426,0,0,0-8.155,12.191A2.339,2.339,0,0,1,567.293,284.218Zm65.513-18.226a2.31,2.31,0,0,1-1.35-.431,41.026,41.026,0,0,0-13.261-6.238,2.337,2.337,0,1,1,1.2-4.517,45.836,45.836,0,0,1,14.767,6.946,2.336,2.336,0,0,1-1.358,4.24Zm-44.363-3.738a2.337,2.337,0,0,1-1.015-4.441,45.8,45.8,0,0,1,15.721-4.365,2.337,2.337,0,0,1,.434,4.654,41.119,41.119,0,0,0-14.125,3.915A2.286,2.286,0,0,1,588.443,262.254Z" transform="translate(-561.311 -253.438)"/><g transform="translate(18.628 26.345)"><rect class="a" width="54.323" height="30.804" transform="translate(0 11.309)"/><g transform="translate(9.938)"><path class="h" d="M605.264,279.958v-3.769a5.023,5.023,0,0,1,5.024-5.024h0a5.025,5.025,0,0,1,5.025,5.024v6.25H605.264" transform="translate(-568.327 -271.092)"/><path class="i" d="M617.514,276.141v32.016H580.479V276.141a5.025,5.025,0,0,1,5.024-5.025h36.618l-1.018.212A5.025,5.025,0,0,0,617.514,276.141Z" transform="translate(-580.479 -271.116)"/><g transform="translate(2.303 5.166)"><rect class="h" width="8.212" height="8.43" transform="translate(0 0.048)"/><g transform="translate(10.728)"><line class="o" x2="20.877"/><line class="o" x2="20.877" transform="translate(0 2.839)"/><line class="o" x2="20.877" transform="translate(0 5.678)"/><line class="o" x2="20.877" transform="translate(0.196 8.517)"/></g><line class="o" x2="31.605" transform="translate(0 11.317)"/><line class="o" x2="31.605" transform="translate(0 14.156)"/><line class="o" x2="31.605" transform="translate(0 16.933)"/><line class="o" x2="15.361" transform="translate(0 19.772)"/></g></g><path class="h" d="M614.788,309.509H573.811V278.7Z" transform="translate(-573.811 -267.395)"/><path class="h" d="M582.765,309.509h40.978V278.7Z" transform="translate(-569.42 -267.395)"/><path class="h" d="M628.134,303.945H573.811l24.4-13.03a4.855,4.855,0,0,1,5.529,0Z" transform="translate(-573.81 -261.832)"/></g></g></g></g></g></g></svg>